#N canvas -8 -8 1920 997 10;
#X obj 218 234 bng 15 250 50 0 empty empty empty 17 7 0 10 -260097
-1 -1;
#X obj 310 339 readsf~;
#X obj 247 258 + 1;
#X obj 218 258 i;
#X obj 398 360 readsf~;
#X obj 603 446 writesf~;
#X msg 709 421 stop;
#X msg 455 403 start;
#X obj 832 330 delay 20000;
#X obj 832 403 readsf~;
#X obj 684 802 dac~;
#X obj 684 747 *~ 0.7;
#X msg 398 338 start;
#X obj 832 308 bng 15 250 50 0 empty empty empty 17 7 0 10 -260097
-1 -1;
#X msg 832 379 start;
#X msg 310 313 start;
#X obj 358 362 t b b;
#X floatatom 737 748 5 0 0 0 - - -, f 5;
#X obj 737 784 * 0.1;
#X floatatom 737 804 5 0 0 0 - - -, f 5;
#X obj 737 766 % 10;
#X obj 683 721 *~ 0;
#X floatatom 689 618 5 0 0 0 - - -, f 5;
#X obj 689 655 * 0.1;
#X floatatom 689 675 5 0 0 0 - - -, f 5;
#X obj 689 637 % 10;
#X msg 685 595 5;
#X msg 718 595 0;
#X floatatom 906 314 5 0 0 0 - - -, f 5;
#X obj 137 315 s recordnr;
#X obj 603 283 r recordnr;
#X obj 137 295 + 1;
#X obj 603 320 makefilename lam%d.wav;
#X floatatom 603 303 5 0 0 0 - - -, f 5;
#X msg 603 387 open lam17.wav;
#X msg 603 365 set open \$1;
#X obj 603 341 t s b b;
#X obj 123 39 adc~ 1;
#X msg 140 408 set open \$1;
#X obj 140 385 t s b b;
#X obj 140 363 makefilename lam%d.wav;
#X msg 140 432 open lam16.wav;
#X floatatom 140 341 5 0 0 0 - - -, f 5;
#X obj 276 258 mod 60;
#X obj 309 362 s~ out;
#X obj 722 722 r~ out;
#X obj 123 61 s~ mic;
#X obj 553 283 r~ mic;
#X obj 682 699 r~ mic;
#X obj 685 574 r rec_b;
#X obj 505 403 s rec_b;
#X obj 832 285 r rec_b;
#X text 923 329 d.1) recording time;
#X text 947 311 msec;
#X obj 186 154 bonk~;
#X obj 186 195 bng 15 250 50 0 empty empty empty 17 7 0 10 -260097
-1 -1;
#X obj 186 213 t b b;
#X obj 186 175 spigot;
#X obj 282 197 tgl 25 0 empty empty empty 17 7 0 10 -2065 -1 -1 1 1
;
#X msg 186 131 thresh 20 65;
#X obj 126 129 lop~ 29;
#X obj 832 357 t b b;
#X obj 282 153 delay 30000;
#X obj 878 423 s end;
#X obj 282 131 r end;
#X obj 125 108 r~ mic;
#X obj 186 111 loadbang;
#X obj 200 26 tgl 15 0 empty empty empty 17 7 0 10 -257985 -1 -1 1
1;
#X msg 200 46 \; pd dsp \$1;
#X obj 822 424 s~ beep;
#X obj 628 720 r~ beep;
#X obj 627 746 *~ 0.2;
#X text 109 19 a) mic.in;
#X text 375 151 b)sound detection trigger;
#X text 141 476 c) listen file;
#X text 329 475 d) leave a message~;
#X text 584 480 e) audio file recording;
#X text 825 475 f) recording timer;
#X text 748 661 g) mic. gate;
#X text 785 766 h) recording gain controller;
#X obj 1078 279 r rec_b;
#X obj 1078 303 bng 15 250 50 0 empty empty empty 17 7 0 10 -260097
-1 -1;
#X obj 1220 551 s~ warn;
#X obj 570 720 r~ warn;
#X obj 1222 494 *~;
#X obj 1272 434 bng 15 250 50 0 empty empty empty 17 7 0 10 -262144
-1 -1;
#X obj 1155 468 osc~ 2000;
#X floatatom 1215 451 5 0 0 0 - - -, f 5;
#X obj 1272 475 line~;
#X msg 879 379 open beep.wav;
#N canvas -185 71 1920 997 beep_maker 0;
#X obj 70 58 bng 15 250 50 0 empty empty empty 17 7 0 10 -262144 -1
-1;
#X obj 70 82 delay 15000;
#X obj 70 106 t b b;
#X obj 213 235 dac~;
#X obj 212 211 *~;
#X obj 262 151 bng 15 250 50 0 empty empty empty 17 7 0 10 -262144
-1 -1;
#X floatatom 205 168 5 0 0 0 - - -, f 5;
#X obj 262 192 line~;
#X floatatom 145 53 5 0 0 0 - - -, f 5;
#X msg 263 171 1 0 \, 1 1000 2000 \, 0 1000 10;
#X obj 214 400 dac~;
#X obj 162 274 bng 15 250 50 0 empty empty empty 17 7 0 10 -262144
-1 -1;
#X floatatom 105 291 5 0 0 0 - - -, f 5;
#X obj 162 315 line~;
#X msg 181 292 1 0 \, 1 1000 2000 \, 0 1000 10;
#X obj 146 186 osc~ 987;
#X obj 65 136 delay 100;
#X msg 97 450 start;
#X obj 112 526 writesf~;
#X msg 56 469 stop;
#X msg 148 450 open ex.wav;
#X obj 61 390 t b b;
#X obj 111 333 *~;
#X obj 112 360 *~ 0.2;
#X text 519 440 830;
#X obj 55 310 osc~ 500;
#X connect 0 0 1 0;
#X connect 1 0 2 0;
#X connect 2 0 5 0;
#X connect 2 1 16 0;
#X connect 4 0 3 0;
#X connect 5 0 9 0;
#X connect 6 0 15 1;
#X connect 7 0 4 1;
#X connect 8 0 1 1;
#X connect 9 0 7 0;
#X connect 11 0 14 0;
#X connect 11 0 21 0;
#X connect 12 0 25 1;
#X connect 13 0 22 1;
#X connect 14 0 13 0;
#X connect 15 0 4 0;
#X connect 16 0 11 0;
#X connect 17 0 18 0;
#X connect 19 0 18 0;
#X connect 20 0 18 0;
#X connect 21 0 17 0;
#X connect 21 1 20 0;
#X connect 22 0 23 0;
#X connect 23 0 18 0;
#X connect 25 0 22 0;
#X restore 279 54 pd beep_maker;
#X obj 217 278 + 1;
#X obj 1221 522 *~ 0.2;
#X obj 513 361 bng 25 500 50 0 empty empty empty 25 25 0 10 -258113
-1 -1;
#X obj 455 360 t b b b;
#X text 919 891 Rita Lêdo \, 2018;
#X obj 283 172 loadbang;
#X msg 1271 452 0.5 0 \, 1 1 50 \, 0 50 20;
#X msg 399 317 open after-the-tone.wav;
#X obj 397 383 s~ tone;
#X obj 512 720 r~ tone;
#X obj 1078 347 t b b b b b;
#X obj 1078 327 delay 16000;
#X obj 1133 373 delay 1000;
#X obj 1097 412 delay 3000;
#X obj 1115 392 delay 2000;
#X text 1032 478 i) 5.sec warning;
#X connect 0 0 3 0;
#X connect 1 0 44 0;
#X connect 1 1 16 0;
#X connect 2 0 43 0;
#X connect 3 0 2 0;
#X connect 3 0 91 0;
#X connect 4 0 99 0;
#X connect 4 1 94 0;
#X connect 6 0 5 0;
#X connect 7 0 5 0;
#X connect 8 0 6 0;
#X connect 8 0 61 0;
#X connect 9 0 11 0;
#X connect 9 0 69 0;
#X connect 9 1 63 0;
#X connect 11 0 10 0;
#X connect 11 0 10 1;
#X connect 12 0 4 0;
#X connect 13 0 8 0;
#X connect 14 0 9 0;
#X connect 15 0 1 0;
#X connect 16 0 12 0;
#X connect 16 1 98 0;
#X connect 17 0 20 0;
#X connect 18 0 19 0;
#X connect 19 0 11 1;
#X connect 20 0 18 0;
#X connect 21 0 11 0;
#X connect 22 0 25 0;
#X connect 23 0 24 0;
#X connect 24 0 21 1;
#X connect 25 0 23 0;
#X connect 26 0 22 0;
#X connect 27 0 22 0;
#X connect 28 0 8 1;
#X connect 30 0 33 0;
#X connect 31 0 29 0;
#X connect 32 0 36 0;
#X connect 33 0 32 0;
#X connect 34 0 5 0;
#X connect 35 0 34 0;
#X connect 36 0 35 0;
#X connect 36 2 34 0;
#X connect 37 0 46 0;
#X connect 38 0 41 0;
#X connect 39 0 38 0;
#X connect 39 1 15 0;
#X connect 39 2 41 0;
#X connect 40 0 39 0;
#X connect 41 0 1 0;
#X connect 42 0 40 0;
#X connect 43 0 3 1;
#X connect 45 0 11 0;
#X connect 47 0 5 0;
#X connect 48 0 21 0;
#X connect 49 0 26 0;
#X connect 51 0 13 0;
#X connect 54 0 57 0;
#X connect 55 0 56 0;
#X connect 56 0 58 0;
#X connect 56 1 0 0;
#X connect 57 0 55 0;
#X connect 58 0 57 1;
#X connect 59 0 54 0;
#X connect 60 0 54 0;
#X connect 61 0 14 0;
#X connect 61 1 89 0;
#X connect 61 1 27 0;
#X connect 62 0 58 0;
#X connect 64 0 62 0;
#X connect 65 0 60 0;
#X connect 66 0 59 0;
#X connect 67 0 68 0;
#X connect 70 0 71 0;
#X connect 71 0 10 0;
#X connect 71 0 10 1;
#X connect 80 0 81 0;
#X connect 81 0 102 0;
#X connect 83 0 71 0;
#X connect 84 0 92 0;
#X connect 85 0 97 0;
#X connect 86 0 84 0;
#X connect 87 0 86 1;
#X connect 88 0 84 1;
#X connect 89 0 9 0;
#X connect 91 0 42 0;
#X connect 91 0 31 0;
#X connect 92 0 82 0;
#X connect 94 0 7 0;
#X connect 94 1 50 0;
#X connect 94 2 93 0;
#X connect 96 0 58 0;
#X connect 97 0 88 0;
#X connect 98 0 4 0;
#X connect 100 0 71 0;
#X connect 101 1 104 0;
#X connect 101 2 105 0;
#X connect 101 3 103 0;
#X connect 101 4 85 0;
#X connect 102 0 101 0;
#X connect 103 0 85 0;
#X connect 104 0 85 0;
#X connect 105 0 85 0;
