#N canvas 467 56 1029 997 10;
#X obj 246 13 adc~;
#X obj 216 610 dac~ 1 2;
#X msg 467 39 \; pd dsp \$1;
#X obj 467 13 tgl 15 0 empty empty empty 17 7 0 10 -257985 -1 -1 0
1;
#X floatatom 286 67 5 0 0 0 - - -, f 5;
#N canvas 898 343 464 506 dry_wet_controller 0;
#X obj 112 272 *~;
#X obj 196 267 *~;
#X floatatom 127 251 5 0 0 0 - - -, f 5;
#X floatatom 211 245 5 0 0 0 - - -, f 5;
#X obj 165 247 * -1;
#X obj 165 225 - 1;
#X obj 111 140 hsl 128 15 0 1 0 0 empty empty empty -2 -8 0 10 -4032
-159808 -159808 0 1;
#X text 105 153 |dry;
#X obj 270 270 *~;
#X floatatom 284 253 5 0 0 0 - - -, f 5;
#X text 215 152 wet|;
#X obj 112 225 r~ dry;
#X obj 193 225 r~ wet_left;
#X obj 269 225 r~ wet_right;
#X obj 269 300 s~ tk_right;
#X obj 112 302 s~ tk_left;
#X obj 155 73 loadbang;
#X obj 252 203 / 2;
#X obj 390 222 f;
#X floatatom 212 119 3 0 0 0 - - -, f 3;
#X obj 389 245 * 100;
#X obj 390 285 i;
#X text 234 118 %;
#X obj 71 225 f;
#X obj 70 252 * 100;
#X obj 68 278 i;
#X floatatom 109 119 3 0 0 0 - - -, f 3;
#X text 130 118 %;
#X obj 390 265 * 2;
#X text 167 106 mix;
#X obj 172 121 bng 15 250 50 0 empty empty empty 17 7 0 10 -4032 -159808
-159808;
#X msg 127 357 0.5;
#X msg 241 363 0.25;
#X connect 0 0 14 0;
#X connect 0 0 15 0;
#X connect 1 0 15 0;
#X connect 2 0 0 1;
#X connect 2 0 23 0;
#X connect 3 0 1 1;
#X connect 3 0 1 0;
#X connect 4 0 2 0;
#X connect 5 0 4 0;
#X connect 6 0 5 0;
#X connect 6 0 17 0;
#X connect 8 0 14 0;
#X connect 9 0 8 1;
#X connect 9 0 18 0;
#X connect 11 0 0 0;
#X connect 12 0 1 0;
#X connect 13 0 8 0;
#X connect 16 0 30 0;
#X connect 17 0 3 0;
#X connect 17 0 9 0;
#X connect 18 0 20 0;
#X connect 20 0 28 0;
#X connect 21 0 19 0;
#X connect 23 0 24 0;
#X connect 24 0 25 0;
#X connect 25 0 26 0;
#X connect 28 0 21 0;
#X connect 30 0 32 0;
#X connect 30 0 31 0;
#X connect 31 0 2 0;
#X connect 32 0 3 0;
#X connect 32 0 9 0;
#X coords 0 -1 1 1 150 70 2 100 100;
#X restore 187 500 pd dry_wet_controller;
#N canvas 994 438 304 372 feedback 0;
#X floatatom 62 186 5 0 0 0 - - -, f 5;
#X obj 113 192 * 0.1;
#X obj 113 118 hsl 128 15 1 5 0 0 empty empty empty -2 -8 0 10 -4160
-4032 -4032 0 1;
#X obj 46 48 inlet~;
#X obj 46 284 outlet~;
#X obj 46 235 *~;
#X obj 61 77 loadbang;
#X obj 110 167 mod 3;
#X text 183 101 feedback|;
#X msg 61 101 0.1;
#X floatatom 147 147 5 0 0 0 - - -, f 5;
#X connect 0 0 5 1;
#X connect 1 0 0 0;
#X connect 2 0 7 0;
#X connect 3 0 5 0;
#X connect 5 0 4 0;
#X connect 6 0 9 0;
#X connect 7 0 1 0;
#X connect 9 0 0 0;
#X connect 10 0 7 1;
#X coords 0 -1 1 1 150 40 2 100 100;
#X restore 186 345 pd feedback;
#X text 489 10 DSP ON/OFF;
#X obj 340 285 s~ wet_right;
#X obj 64 291 s~ wet_left;
#X obj 230 69 s~ dry;
#X obj 270 578 r~ tk_right;
#X obj 188 578 r~ tk_left;
#X obj 370 217 *~ 0.5;
#X obj 95 225 *~ 0.5;
#N canvas 607 151 304 300 repeats 0;
#X floatatom 107 167 5 0 0 0 - - -, f 5;
#X obj 109 212 * 0.1;
#X obj 109 236 + 0.1;
#X obj 113 117 hsl 128 15 0 4 0 0 empty empty empty -2 -8 0 10 -204786
-232576 -232576 0 1;
#X obj 109 187 % 5;
#X text 190 101 repeats|;
#X obj 51 148 loadbang;
#X msg 77 167 4;
#X obj 109 256 s repeat;
#X connect 0 0 4 0;
#X connect 1 0 2 0;
#X connect 2 0 8 0;
#X connect 3 0 0 0;
#X connect 4 0 1 0;
#X connect 6 0 7 0;
#X connect 7 0 0 0;
#X coords 0 -1 1 1 150 35 2 100 100;
#X restore 186 394 pd repeats;
#X obj 329 17 vsl 128 128 0 11 0 0 empty empty Marshall 0 -9 0 10 -1
-244933 -262144 0 0;
#X obj 286 48 * 0.1;
#X obj 64 269 delread~ ping 500;
#N canvas 744 288 367 341 time 0;
#X obj 113 124 hsl 128 15 0 10000 0 0 empty empty empty -2 -8 0 10
-159808 -4032 -4032 0 1;
#X obj 107 234 s time;
#X text 170 104 delay time|;
#X floatatom 110 106 5 0 0 0 - - -, f 5;
#X obj 108 211 i;
#X text 108 141 0ms;
#X text 208 140 10Kms;
#X obj 109 191 clip 0 10000;
#X msg 54 63 200;
#X msg 127 66 600;
#X msg 163 65 1000;
#X msg 91 66 500;
#X msg 205 64 2000;
#X msg 248 64 5000;
#X msg 288 64 8000;
#X obj 54 42 r del_200;
#X obj 91 21 r del_500;
#X obj 126 43 r del_600;
#X obj 163 21 r del_1000;
#X obj 205 43 r del_2000;
#X obj 247 22 r del_5000;
#X obj 288 45 r del_8000;
#X connect 0 0 7 0;
#X connect 3 0 1 0;
#X connect 4 0 3 0;
#X connect 7 0 4 0;
#X connect 8 0 0 0;
#X connect 9 0 0 0;
#X connect 10 0 0 0;
#X connect 11 0 0 0;
#X connect 12 0 0 0;
#X connect 13 0 0 0;
#X connect 14 0 0 0;
#X connect 15 0 8 0;
#X connect 16 0 11 0;
#X connect 17 0 9 0;
#X connect 18 0 10 0;
#X connect 19 0 12 0;
#X connect 20 0 13 0;
#X connect 21 0 14 0;
#X coords 0 -1 1 1 150 60 2 100 100;
#X restore 187 434 pd time;
#X obj 64 248 r time;
#X obj 339 241 r time;
#N canvas 339 9 717 997 fausto 0;
#X floatatom 254 74 5 0 0 0 - - -, f 5;
#X obj 254 115 clip 0 1;
#X obj 285 159 + 1;
#X obj 54 605 print;
#X msg 265 255 Tenho a cabeça espetada;
#X msg 266 275 entre a noite e a madrugada.;
#X msg 266 295 Tenho um braço deitado;
#X msg 266 318 entre o perfeito e o enjeitado.;
#X obj 254 160 i;
#X obj 254 139 bng 15 250 50 0 empty empty empty 17 7 0 10 -262144
-1 -1;
#X obj 254 92 i;
#X msg 273 341 E um canhão apontado;
#X msg 273 361 para qualquer lado enfeudado.;
#X msg 272 382 Venha lá quem quiser;
#X msg 272 403 estou p´ró que der e vier.;
#X msg 266 426 De manhã mal acordado \,;
#X msg 266 446 de noite pouco ensonado.;
#X msg 266 466 Para a aventura que teço;
#X msg 266 486 encontro os dias do avesso.;
#X msg 273 506 Na terra do perder Deus é dinheiro;
#X msg 273 527 Diabo é não o ter.;
#X msg 273 547 Seja homem ou mulher;
#X msg 273 567 estou p´ró que der e vier.;
#X msg 266 592 Dia a dia num aperto;
#X msg 266 611 que mais parece um deserto.;
#X msg 266 632 No descalabro do medo;
#X msg 265 653 mal se levanta um dedo.;
#X msg 272 675 Aconteça o que acontecer;
#X msg 273 698 não temos nada a perder \,;
#X msg 273 720 dê no que vier a dar;
#X msg 273 741 assim não podemos ficar.;
#X msg 264 766 Hei-de ser a barricada \,;
#X msg 263 811 Hei-de ser ferro forjado \,;
#X msg 262 832 dia e noite amor calado.;
#X msg 268 852 Hei-de ser punho cerrado;
#X msg 268 875 e ternura docemente;
#X msg 268 894 e haja lá o que houver;
#X msg 267 915 estou p´ró que der e vier.;
#X obj 255 214 sel 0 1 2 3 4 5 6 7 8 9 10 11 12 13 14 15 16 17 18 19
20 21 22 23 24 25 26 27 28 29 30 31;
#X msg 263 789 arma. fogo. despedida.;
#X text 266 935 António Pedro Braga / Fausto "Pró que der e vier"
(1974);
#X obj 290 185 mod 33;
#X obj 254 54 bonk~;
#X msg 334 28 thresh 2 10;
#X obj 334 7 loadbang;
#X obj 277 138 s bonk;
#X obj 254 30 r~ tkline;
#X connect 0 0 10 0;
#X connect 1 0 9 0;
#X connect 2 0 41 0;
#X connect 4 0 3 0;
#X connect 5 0 3 0;
#X connect 6 0 3 0;
#X connect 7 0 3 0;
#X connect 8 0 2 0;
#X connect 8 0 38 0;
#X connect 9 0 8 0;
#X connect 9 0 45 0;
#X connect 10 0 1 0;
#X connect 11 0 3 0;
#X connect 12 0 3 0;
#X connect 13 0 3 0;
#X connect 14 0 3 0;
#X connect 15 0 3 0;
#X connect 16 0 3 0;
#X connect 17 0 3 0;
#X connect 18 0 3 0;
#X connect 19 0 3 0;
#X connect 20 0 3 0;
#X connect 21 0 3 0;
#X connect 22 0 3 0;
#X connect 23 0 3 0;
#X connect 24 0 3 0;
#X connect 25 0 3 0;
#X connect 26 0 3 0;
#X connect 27 0 3 0;
#X connect 28 0 3 0;
#X connect 29 0 3 0;
#X connect 30 0 3 0;
#X connect 31 0 3 0;
#X connect 32 0 3 0;
#X connect 33 0 3 0;
#X connect 34 0 3 0;
#X connect 35 0 3 0;
#X connect 36 0 3 0;
#X connect 37 0 3 0;
#X connect 38 1 4 0;
#X connect 38 2 5 0;
#X connect 38 3 6 0;
#X connect 38 4 7 0;
#X connect 38 5 11 0;
#X connect 38 6 12 0;
#X connect 38 7 13 0;
#X connect 38 8 14 0;
#X connect 38 9 15 0;
#X connect 38 10 16 0;
#X connect 38 11 17 0;
#X connect 38 12 18 0;
#X connect 38 13 19 0;
#X connect 38 14 20 0;
#X connect 38 15 21 0;
#X connect 38 16 22 0;
#X connect 38 17 23 0;
#X connect 38 18 24 0;
#X connect 38 19 25 0;
#X connect 38 20 26 0;
#X connect 38 21 27 0;
#X connect 38 22 28 0;
#X connect 38 23 29 0;
#X connect 38 24 30 0;
#X connect 38 25 31 0;
#X connect 38 26 39 0;
#X connect 38 27 32 0;
#X connect 38 28 33 0;
#X connect 38 29 34 0;
#X connect 38 30 35 0;
#X connect 38 31 36 0;
#X connect 38 32 37 0;
#X connect 39 0 3 0;
#X connect 41 0 8 1;
#X connect 42 0 0 0;
#X connect 43 0 42 0;
#X connect 44 0 43 0;
#X connect 46 0 42 0;
#X restore 352 501 pd fausto;
#X obj 403 198 r repeat;
#X obj 128 206 r repeat;
#X obj 339 263 delread~ pong 500;
#X obj 230 48 *~ 0.9;
#N canvas 449 155 1256 790 estrelas 0;
#X obj 741 62 sigmund~ -hop 516 -minpower 50 notes env;
#X obj 223 113 tgl 30 0 empty empty empty 17 7 0 10 -209705 -217067
-217067 0 1;
#X obj 1006 87 s env;
#N canvas 379 104 1469 859 moses_in_chains 0;
#X obj 407 207 bng 15 250 50 0 empty empty empty 17 7 0 10 -262144
-1 -1;
#X floatatom 460 207 5 0 0 0 - - -, f 5;
#X obj 460 251 bng 15 250 50 0 empty empty empty 17 7 0 10 -262144
-1 -1;
#X floatatom 513 251 5 0 0 0 - - -, f 5;
#X obj 513 294 bng 15 250 50 0 empty empty empty 17 7 0 10 -262144
-1 -1;
#X floatatom 566 295 5 0 0 0 - - -, f 5;
#X obj 567 337 bng 15 250 50 0 empty empty empty 17 7 0 10 -262144
-1 -1;
#X floatatom 619 338 5 0 0 0 - - -, f 5;
#X obj 621 378 bng 15 250 50 0 empty empty empty 17 7 0 10 -262144
-1 -1;
#X floatatom 673 379 5 0 0 0 - - -, f 5;
#X obj 673 422 bng 15 250 50 0 empty empty empty 17 7 0 10 -262144
-1 -1;
#X obj 248 78 change;
#X obj 248 57 i;
#X floatatom 247 41 5 0 0 0 - - -, f 5;
#X obj 354 163 bng 15 250 50 0 empty empty empty 17 7 0 10 -262144
-1 -1;
#X floatatom 407 164 5 0 0 0 - - -, f 5;
#X floatatom 301 99 5 0 0 0 - - -, f 5;
#X obj 247 18 r env;
#X obj 354 139 moses 40;
#X obj 174 559 outlet;
#X obj 518 784 outlet;
#X obj 299 79 spigot;
#X obj 338 59 tgl 15 0 empty empty empty 17 7 0 10 -262144 -1 -1 0
1;
#X obj 359 57 bonk~;
#X msg 439 31 thresh 2 10;
#X obj 439 10 loadbang;
#X obj 359 33 r~ tkline;
#X obj 301 118 moses 35;
#X obj 301 138 bng 15 250 50 0 empty empty empty 17 7 0 10 -262144
-1 -1;
#X msg 301 158 0;
#X msg 354 183 12;
#X msg 406 228 8;
#X msg 459 272 7;
#X msg 513 315 6;
#X msg 567 357 5;
#X msg 671 445 3;
#X floatatom 733 423 5 0 0 0 - - -, f 5;
#X obj 733 467 bng 15 250 50 0 empty empty empty 17 7 0 10 -262144
-1 -1;
#X floatatom 786 467 5 0 0 0 - - -, f 5;
#X obj 786 510 bng 15 250 50 0 empty empty empty 17 7 0 10 -262144
-1 -1;
#X floatatom 839 511 5 0 0 0 - - -, f 5;
#X obj 840 553 bng 15 250 50 0 empty empty empty 17 7 0 10 -262144
-1 -1;
#X floatatom 892 554 5 0 0 0 - - -, f 5;
#X obj 894 594 bng 15 250 50 0 empty empty empty 17 7 0 10 -262144
-1 -1;
#X floatatom 946 595 5 0 0 0 - - -, f 5;
#X obj 946 617 bng 15 250 50 0 empty empty empty 17 7 0 10 -262144
-1 -1;
#X obj 893 573 moses 90;
#X obj 407 184 moses 45;
#X obj 460 226 moses 50;
#X obj 513 270 moses 55;
#X obj 565 313 moses 60;
#X obj 621 357 moses 65;
#X obj 673 400 moses 70;
#X obj 733 442 moses 75;
#X obj 786 485 moses 80;
#X obj 839 530 moses 85;
#X msg 621 399 4;
#X msg 732 488 2;
#X msg 786 531 11;
#X msg 840 573 10;
#X msg 895 614 9;
#X msg 354 209 20;
#X msg 407 254 40;
#X msg 460 300 80;
#X msg 514 342 160;
#X msg 943 637 8;
#X msg 565 383 80;
#X msg 620 420 40;
#X msg 672 474 20;
#X msg 733 516 10;
#X msg 787 558 20;
#X msg 839 599 40;
#X msg 894 636 80;
#X msg 945 661 160;
#X connect 0 0 31 0;
#X connect 0 0 62 0;
#X connect 1 0 48 0;
#X connect 2 0 32 0;
#X connect 2 0 63 0;
#X connect 3 0 49 0;
#X connect 4 0 33 0;
#X connect 4 0 64 0;
#X connect 5 0 50 0;
#X connect 6 0 34 0;
#X connect 6 0 66 0;
#X connect 7 0 51 0;
#X connect 8 0 56 0;
#X connect 8 0 67 0;
#X connect 9 0 52 0;
#X connect 10 0 35 0;
#X connect 10 0 68 0;
#X connect 11 0 21 0;
#X connect 12 0 11 0;
#X connect 13 0 12 0;
#X connect 14 0 30 0;
#X connect 14 0 61 0;
#X connect 15 0 47 0;
#X connect 16 0 27 0;
#X connect 17 0 13 0;
#X connect 18 0 14 0;
#X connect 18 1 15 0;
#X connect 21 0 16 0;
#X connect 22 0 21 1;
#X connect 23 0 22 0;
#X connect 24 0 23 0;
#X connect 25 0 24 0;
#X connect 26 0 23 0;
#X connect 27 0 28 0;
#X connect 27 1 18 0;
#X connect 28 0 29 0;
#X connect 29 0 22 0;
#X connect 30 0 19 0;
#X connect 31 0 19 0;
#X connect 32 0 19 0;
#X connect 33 0 19 0;
#X connect 34 0 66 0;
#X connect 35 0 19 0;
#X connect 36 0 53 0;
#X connect 37 0 57 0;
#X connect 37 0 69 0;
#X connect 38 0 54 0;
#X connect 39 0 58 0;
#X connect 39 0 70 0;
#X connect 40 0 55 0;
#X connect 41 0 59 0;
#X connect 41 0 71 0;
#X connect 42 0 46 0;
#X connect 43 0 60 0;
#X connect 43 0 72 0;
#X connect 44 0 45 0;
#X connect 45 0 65 0;
#X connect 45 0 73 0;
#X connect 46 0 43 0;
#X connect 46 1 44 0;
#X connect 47 0 0 0;
#X connect 47 1 1 0;
#X connect 48 0 2 0;
#X connect 48 1 3 0;
#X connect 49 0 4 0;
#X connect 49 1 5 0;
#X connect 50 0 6 0;
#X connect 50 1 7 0;
#X connect 51 0 8 0;
#X connect 51 1 9 0;
#X connect 52 0 10 0;
#X connect 52 1 36 0;
#X connect 53 0 37 0;
#X connect 53 1 38 0;
#X connect 54 0 39 0;
#X connect 54 1 40 0;
#X connect 55 0 41 0;
#X connect 55 1 42 0;
#X connect 56 0 19 0;
#X connect 56 0 67 0;
#X connect 57 0 19 0;
#X connect 58 0 19 0;
#X connect 59 0 71 0;
#X connect 59 0 19 0;
#X connect 60 0 72 0;
#X connect 60 0 19 0;
#X connect 61 0 20 0;
#X connect 62 0 20 0;
#X connect 63 0 20 0;
#X connect 64 0 20 0;
#X connect 65 0 19 0;
#X connect 66 0 20 0;
#X connect 67 0 20 0;
#X connect 68 0 20 0;
#X connect 69 0 20 0;
#X connect 70 0 20 0;
#X connect 71 0 20 0;
#X connect 72 0 20 0;
#X connect 73 0 20 0;
#X restore 275 172 pd moses_in_chains;
#X floatatom 398 193 5 0 0 0 - - -, f 5;
#X floatatom 964 88 5 0 0 0 - - -, f 5;
#X msg 277 128 0;
#X msg 327 128 1;
#X obj 275 46 sigmund~ env;
#X obj 276 21 r~ tkline;
#X obj 106 152 tgl 15 0 empty empty empty 17 7 0 10 -2051 -260097 -159808
0 1;
#X text 128 149 <auto;
#X floatatom 320 88 5 0 0 0 - - -, f 5;
#X obj 108 170 hsl 50 15 90 20 0 0 empty empty empty -2 -8 0 10 -2051
-260097 -260097 0 1;
#X text 108 117 estrelas on/off;
#X text 163 169 sensibilidade;
#X floatatom 231 47 5 0 0 0 - - -, f 5;
#X obj 275 66 spigot;
#X floatatom 275 87 5 0 0 0 - - -, f 5;
#X obj 106 292 r transpose;
#X floatatom 106 314 5 0 0 0 - - -, f 5;
#X obj 105 358 exp;
#X floatatom 105 384 6 0 0 0 - - -, f 6;
#X obj 105 411 - 1;
#X obj 105 332 * 0.05776;
#X obj 105 432 * -1;
#X obj 105 458 /;
#X floatatom 105 480 5 0 0 0 - - -, f 5;
#X obj 212 316 r window;
#X floatatom 212 339 5 0 0 0 - - -, f 5;
#X text 255 337 msec;
#X obj 212 364 max 1;
#X obj 212 384 * 0.001;
#X obj 211 405 t b f;
#X obj 287 367 pack 0 200;
#X obj 287 389 line~;
#X obj 105 498 phasor~;
#X obj 106 520 -~ 0.5;
#X obj 106 544 *~ 0.5;
#X obj 107 567 cos~;
#X obj 107 601 *~;
#X obj 171 570 delread4~ stars;
#X obj 166 474 +~ 0.5;
#X obj 165 496 wrap~;
#X obj 170 528 *~;
#X obj 171 550 +~;
#X obj 108 623 +~;
#X obj 304 409 r delay;
#X floatatom 304 430 5 0 0 0 - - -, f 5;
#X obj 304 449 max 1.5;
#X obj 304 472 pack 0 200;
#X obj 304 493 line~;
#X obj 217 474 -~ 0.5;
#X obj 218 497 *~ 0.5;
#X obj 219 518 cos~;
#X obj 219 540 *~;
#X obj 270 517 delread4~ stars;
#X obj 270 494 +~;
#X obj 269 473 *~;
#X obj 771 43 delwrite~ stars 5000;
#X obj 108 648 *~;
#X floatatom 665 311 5 0 0 0 - - -, f 5;
#X obj 665 354 exp;
#X floatatom 665 380 6 0 0 0 - - -, f 6;
#X obj 665 407 - 1;
#X obj 665 328 * 0.05776;
#X obj 665 428 * -1;
#X obj 665 454 /;
#X floatatom 665 476 5 0 0 0 - - -, f 5;
#X floatatom 738 348 5 0 0 0 - - -, f 5;
#X text 779 348 msec;
#X obj 738 373 max 1;
#X obj 738 393 * 0.001;
#X obj 737 414 t b f;
#X obj 846 352 pack 0 200;
#X obj 846 374 line~;
#X obj 665 494 phasor~;
#X obj 666 516 -~ 0.5;
#X obj 666 540 *~ 0.5;
#X obj 667 563 cos~;
#X obj 667 597 *~;
#X obj 731 566 delread4~ stars;
#X obj 723 472 +~ 0.5;
#X obj 722 494 wrap~;
#X obj 730 524 *~;
#X obj 731 546 +~;
#X obj 668 619 +~;
#X floatatom 858 430 5 0 0 0 - - -, f 5;
#X obj 858 449 max 1.5;
#X obj 858 472 pack 0 200;
#X obj 858 493 line~;
#X obj 775 472 -~ 0.5;
#X obj 776 495 *~ 0.5;
#X obj 777 516 cos~;
#X obj 777 538 *~;
#X obj 828 515 delread4~ stars;
#X obj 828 492 +~;
#X obj 827 471 *~;
#X floatatom 665 247 5 0 0 0 - - -, f 5;
#X text 148 314 semitons;
#X text 151 381 comment;
#X floatatom 361 409 5 0 0 0 - - -, f 5;
#X obj 1075 15 loadbang;
#X text 668 288 <transpose 2>, f 14;
#X text 857 412 <delay 2>;
#X obj 741 14 r~ dry;
#X obj 105 235 hradio 10 1 0 12 empty empty empty 0 -8 0 10 -204800
-41 -260097 12;
#X text 226 229 1/2t;
#X obj 738 326 r window;
#X obj 398 210 spigot;
#X obj 105 194 tgl 15 0 empty empty empty 17 7 0 10 -41 -204800 -1
0 1;
#X text 122 194 sereias do espaço;
#X obj 272 213 spigot;
#X obj 105 215 tgl 15 0 empty empty empty 17 7 0 10 -204800 -41 -1
0 1;
#X floatatom 276 194 5 0 0 0 - - -, f 5;
#X text 124 215 magia;
#X obj 276 107 moses 60;
#X text 442 165 < modela a frequencia (magia) e o delay (sereias do
espaço) com amplitude do sinal;
#X text 372 59 < auto toggle com amplitude do sinal;
#X obj 347 429 + 100;
#X obj 969 682 delwrite~ estrelas 200;
#X obj 668 640 *~;
#X obj 668 683 delwrite~ estrelas_2 200;
#X obj 107 734 s~ stars;
#X floatatom 964 309 5 0 0 0 - - -, f 5;
#X obj 964 352 exp;
#X floatatom 964 378 6 0 0 0 - - -, f 6;
#X obj 964 405 - 1;
#X obj 964 326 * 0.05776;
#X obj 964 426 * -1;
#X obj 964 452 /;
#X floatatom 964 474 5 0 0 0 - - -, f 5;
#X floatatom 1044 348 5 0 0 0 - - -, f 5;
#X text 1087 346 msec;
#X obj 1044 373 max 1;
#X obj 1044 393 * 0.001;
#X obj 1043 414 t b f;
#X obj 1142 351 pack 0 200;
#X obj 1142 373 line~;
#X obj 964 492 phasor~;
#X obj 965 514 -~ 0.5;
#X obj 965 538 *~ 0.5;
#X obj 966 561 cos~;
#X obj 966 595 *~;
#X obj 1030 564 delread4~ stars;
#X obj 1024 471 +~ 0.5;
#X obj 1023 493 wrap~;
#X obj 1029 522 *~;
#X obj 1030 544 +~;
#X obj 967 617 +~;
#X floatatom 1154 429 5 0 0 0 - - -, f 5;
#X obj 1154 448 max 1.5;
#X obj 1154 471 pack 0 200;
#X obj 1154 492 line~;
#X obj 1073 471 -~ 0.5;
#X obj 1074 494 *~ 0.5;
#X obj 1075 515 cos~;
#X obj 1075 537 *~;
#X obj 1124 514 delread4~ stars;
#X obj 1124 491 +~;
#X obj 1123 470 *~;
#X obj 1044 326 r window;
#X text 1153 411 <delay 3>;
#X obj 900 430 + 100;
#X obj 108 671 delwrite~ estrelas_3 200;
#X obj 967 639 *~;
#X obj 968 661 *~ 0.25;
#X obj 668 662 *~ 0.5;
#X obj 105 253 + 1;
#X obj 108 709 delread~ estrelas_3 10;
#X obj 140 648 delread~ estrelas_2 40;
#X obj 719 662 delread~ estrelas 60;
#X text 174 733 < envia para PING;
#X obj 664 228 r relacao;
#X obj 962 230 r relacao;
#X floatatom 962 251 5 0 0 0 - - -, f 5;
#X msg 1075 35 \; transpose 2 \; window 200 \; delay 40 \; relacao
12;
#X obj 665 263 + 12;
#X obj 964 269 + 12;
#X text 956 287 <transpose 3>, f 14;
#X connect 0 1 5 0;
#X connect 0 1 2 0;
#X connect 1 0 60 1;
#X connect 1 0 121 1;
#X connect 1 0 165 1;
#X connect 3 0 112 0;
#X connect 3 0 114 0;
#X connect 3 1 4 0;
#X connect 4 0 109 0;
#X connect 6 0 1 0;
#X connect 7 0 1 0;
#X connect 8 0 16 0;
#X connect 8 0 17 0;
#X connect 9 0 8 0;
#X connect 10 0 17 1;
#X connect 12 0 116 1;
#X connect 13 0 12 0;
#X connect 17 0 18 0;
#X connect 18 0 116 0;
#X connect 19 0 20 0;
#X connect 20 0 24 0;
#X connect 20 0 177 0;
#X connect 21 0 22 0;
#X connect 22 0 23 0;
#X connect 23 0 25 0;
#X connect 24 0 21 0;
#X connect 25 0 26 0;
#X connect 26 0 27 0;
#X connect 27 0 36 0;
#X connect 28 0 29 0;
#X connect 29 0 31 0;
#X connect 31 0 32 0;
#X connect 31 0 34 0;
#X connect 32 0 33 0;
#X connect 33 0 26 0;
#X connect 33 1 26 1;
#X connect 34 0 35 0;
#X connect 35 0 58 1;
#X connect 36 0 37 0;
#X connect 36 0 42 0;
#X connect 36 0 44 0;
#X connect 37 0 38 0;
#X connect 38 0 39 0;
#X connect 39 0 40 0;
#X connect 40 0 46 0;
#X connect 41 0 40 1;
#X connect 42 0 43 0;
#X connect 43 0 52 0;
#X connect 43 0 58 0;
#X connect 44 0 45 0;
#X connect 45 0 41 0;
#X connect 46 0 60 0;
#X connect 47 0 48 0;
#X connect 48 0 49 0;
#X connect 48 0 119 0;
#X connect 49 0 50 0;
#X connect 50 0 51 0;
#X connect 51 0 45 1;
#X connect 51 0 57 1;
#X connect 52 0 53 0;
#X connect 53 0 54 0;
#X connect 54 0 55 0;
#X connect 55 0 46 1;
#X connect 56 0 55 1;
#X connect 57 0 56 0;
#X connect 58 0 57 0;
#X connect 60 0 164 0;
#X connect 61 0 65 0;
#X connect 61 0 178 0;
#X connect 62 0 63 0;
#X connect 63 0 64 0;
#X connect 64 0 66 0;
#X connect 65 0 62 0;
#X connect 66 0 67 0;
#X connect 67 0 68 0;
#X connect 68 0 76 0;
#X connect 69 0 71 0;
#X connect 71 0 72 0;
#X connect 71 0 74 0;
#X connect 72 0 73 0;
#X connect 73 0 67 0;
#X connect 73 1 67 1;
#X connect 74 0 75 0;
#X connect 75 0 97 1;
#X connect 76 0 77 0;
#X connect 76 0 82 0;
#X connect 76 0 84 0;
#X connect 77 0 78 0;
#X connect 78 0 79 0;
#X connect 79 0 80 0;
#X connect 80 0 86 0;
#X connect 81 0 80 1;
#X connect 82 0 83 0;
#X connect 83 0 91 0;
#X connect 83 0 97 0;
#X connect 84 0 85 0;
#X connect 85 0 81 0;
#X connect 86 0 121 0;
#X connect 87 0 88 0;
#X connect 87 0 163 0;
#X connect 88 0 89 0;
#X connect 89 0 90 0;
#X connect 90 0 85 1;
#X connect 90 0 96 1;
#X connect 91 0 92 0;
#X connect 92 0 93 0;
#X connect 93 0 94 0;
#X connect 94 0 86 1;
#X connect 95 0 94 1;
#X connect 96 0 95 0;
#X connect 97 0 96 0;
#X connect 98 0 177 1;
#X connect 98 0 178 1;
#X connect 101 0 119 1;
#X connect 102 0 176 0;
#X connect 105 0 59 0;
#X connect 105 0 0 0;
#X connect 106 0 168 0;
#X connect 108 0 69 0;
#X connect 109 0 48 0;
#X connect 110 0 109 1;
#X connect 112 0 106 0;
#X connect 113 0 112 1;
#X connect 116 0 6 0;
#X connect 116 1 7 0;
#X connect 119 0 87 0;
#X connect 121 0 167 0;
#X connect 124 0 128 0;
#X connect 125 0 126 0;
#X connect 126 0 127 0;
#X connect 127 0 129 0;
#X connect 128 0 125 0;
#X connect 129 0 130 0;
#X connect 130 0 131 0;
#X connect 131 0 139 0;
#X connect 132 0 134 0;
#X connect 134 0 135 0;
#X connect 134 0 137 0;
#X connect 135 0 136 0;
#X connect 136 0 130 0;
#X connect 136 1 130 1;
#X connect 137 0 138 0;
#X connect 138 0 160 1;
#X connect 139 0 140 0;
#X connect 139 0 145 0;
#X connect 139 0 147 0;
#X connect 140 0 141 0;
#X connect 141 0 142 0;
#X connect 142 0 143 0;
#X connect 143 0 149 0;
#X connect 144 0 143 1;
#X connect 145 0 146 0;
#X connect 146 0 154 0;
#X connect 146 0 160 0;
#X connect 147 0 148 0;
#X connect 148 0 144 0;
#X connect 149 0 165 0;
#X connect 150 0 151 0;
#X connect 151 0 152 0;
#X connect 152 0 153 0;
#X connect 153 0 148 1;
#X connect 153 0 159 1;
#X connect 154 0 155 0;
#X connect 155 0 156 0;
#X connect 156 0 157 0;
#X connect 157 0 149 1;
#X connect 158 0 157 1;
#X connect 159 0 158 0;
#X connect 160 0 159 0;
#X connect 161 0 132 0;
#X connect 163 0 150 0;
#X connect 165 0 166 0;
#X connect 166 0 120 0;
#X connect 167 0 122 0;
#X connect 168 0 20 0;
#X connect 169 0 123 0;
#X connect 170 0 164 0;
#X connect 171 0 122 0;
#X connect 173 0 98 0;
#X connect 174 0 175 0;
#X connect 175 0 178 1;
#X connect 177 0 61 0;
#X connect 178 0 124 0;
#X coords 0 -1 1 1 160 150 2 100 100;
#X restore 351 344 pd estrelas;
#X obj 155 48 s~ tkline;
#X text 391 326 *~ESTRELAS~*;
#X text 217 326 *~PING PONG~*;
#X obj 528 312 bng 15 250 50 0 empty empty empty 17 7 0 10 -232576
-260145 -1;
#N canvas 758 401 446 244 agradecimentos 0;
#X obj 40 8 inlet;
#X obj 39 193 outlet;
#X obj 39 152 list prepend set;
#X obj 39 172 list trim;
#X msg 61 109 set;
#X obj 40 132 text tolist agradecimentos;
#X obj 242 58 text define agradecimentos;
#X msg 242 38 read agradecimentos.txt;
#X obj 242 16 loadbang;
#X obj 71 29 + 1;
#X obj 40 30 i;
#X obj 71 50 mod 2;
#X obj 61 90 bng 15 250 50 0 empty empty empty 17 7 0 10 -262144 -1
-1;
#X obj 40 90 bng 15 250 50 0 empty empty empty 17 7 0 10 -262144 -1
-1;
#X obj 40 70 sel 0 1;
#X connect 0 0 10 0;
#X connect 2 0 3 0;
#X connect 3 0 1 0;
#X connect 4 0 1 0;
#X connect 5 0 2 0;
#X connect 7 0 6 0;
#X connect 8 0 7 0;
#X connect 9 0 11 0;
#X connect 10 0 9 0;
#X connect 10 0 14 0;
#X connect 11 0 10 1;
#X connect 12 0 4 0;
#X connect 13 0 5 0;
#X connect 14 0 13 0;
#X connect 14 1 12 0;
#X restore 528 339 pd agradecimentos;
#X msg 528 361;
#X text 552 325 *~AGRADECIMENTOS~*;
#N canvas 0 50 224 262 VUmeter 0;
#X obj 105 25 r~ dry;
#X obj 105 45 env~ 128;
#X obj 107 65 - 100;
#X obj 108 114 vu 15 120 empty empty -1 -8 0 10 -66577 -1 1 0;
#X connect 0 0 1 0;
#X connect 1 0 2 0;
#X connect 2 0 3 0;
#X coords 0 -1 1 1 55 140 2 100 100;
#X restore 457 501 pd VUmeter;
#X text 530 526 “But this didn't feel like magic. It felt a lot older
than that. It felt like music.” - Terry Pratchett \, Soul Music;
#X text 343 543 Rita Lêdo \, 2018;
#X text 344 528 <Impish Delay>;
#N canvas 543 291 741 447 record 0;
#X obj 269 334 writesf~;
#X msg 382 132 stop;
#X msg 420 298 start;
#X floatatom 428 197 5 0 0 0 - - -, f 5;
#X msg 269 291 set open \$1;
#X obj 269 271 t s b b;
#X obj 428 131 bng 15 250 50 0 empty empty empty 17 7 0 10 -260097
-1 -1;
#X obj 461 153 + 1;
#X obj 428 153 i;
#X msg 269 312 open ImpLeft0.wav;
#X obj 269 248 makefilename ImpLeft%d.wav;
#X msg 502 296 set open \$1;
#X obj 503 273 t s b b;
#X msg 502 320 open ImpRight0.wav;
#X obj 504 250 makefilename ImpRight%d.wav;
#X obj 107 108 tgl 25 0 empty empty empty 17 7 0 10 -258113 -1 -1 0
1;
#X obj 382 110 moses 1;
#X obj 502 341 writesf~;
#X text 106 137 REC.;
#X obj 268 226 r~ tk_left;
#X obj 503 228 r~ tk_right;
#X text 266 199 <left_rec>;
#X text 500 206 <right_rec>;
#X obj 420 277 del 10;
#X obj 428 174 t f;
#X connect 1 0 0 0;
#X connect 1 0 17 0;
#X connect 2 0 0 0;
#X connect 2 0 17 0;
#X connect 3 0 10 0;
#X connect 3 0 14 0;
#X connect 4 0 9 0;
#X connect 5 0 4 0;
#X connect 5 1 23 0;
#X connect 5 2 9 0;
#X connect 6 0 8 0;
#X connect 7 0 8 1;
#X connect 8 0 7 0;
#X connect 8 0 24 0;
#X connect 9 0 0 0;
#X connect 10 0 5 0;
#X connect 11 0 13 0;
#X connect 12 0 11 0;
#X connect 12 1 23 0;
#X connect 12 2 13 0;
#X connect 13 0 17 0;
#X connect 14 0 12 0;
#X connect 15 0 16 0;
#X connect 16 0 1 0;
#X connect 16 1 6 0;
#X connect 19 0 0 0;
#X connect 20 0 17 0;
#X connect 23 0 2 0;
#X connect 24 0 3 0;
#X coords 0 -1 1 1 40 55 2 100 100;
#X restore 407 587 pd record;
#X obj 337 176 delwrite~ pong 10000;
#X obj 63 184 delwrite~ ping 10000;
#X obj 63 161 r~ stars;
#N canvas 791 294 450 300 del_bang 0;
#X obj 101 193 bng 15 250 50 0 empty empty empty 17 7 0 10 -159808
-4032 -1;
#X obj 101 130 bng 15 250 50 0 empty empty empty 17 7 0 10 -159808
-4032 -1;
#X obj 101 146 bng 15 250 50 0 empty empty empty 17 7 0 10 -4032 -159808
-1;
#X obj 101 101 bng 15 250 50 0 empty empty empty 17 7 0 10 -159808
-4032 -1;
#X obj 101 116 bng 15 250 50 0 empty empty empty 17 7 0 10 -4032 -159808
-1;
#X obj 101 162 bng 15 250 50 0 empty empty empty 17 7 0 10 -159808
-4032 -1;
#X obj 101 177 bng 15 250 50 0 empty empty empty 17 7 0 10 -4032 -159808
-1;
#X obj 130 97 s del_200;
#X obj 130 116 s del_500;
#X obj 129 134 s del_600;
#X obj 130 149 s del_1000;
#X obj 131 165 s del_2000;
#X obj 130 182 s del_5000;
#X obj 129 200 s del_8000;
#X connect 0 0 13 0;
#X connect 1 0 9 0;
#X connect 2 0 10 0;
#X connect 3 0 7 0;
#X connect 4 0 8 0;
#X connect 5 0 11 0;
#X connect 6 0 12 0;
#X coords 0 -1 1 1 17 109 2 100 100;
#X restore 165 434 pd del_bang;
#X text 123 434 200ms;
#X text 123 450 500ms;
#X text 123 466 600ms;
#X text 130 481 1sec;
#X text 130 496 2sec;
#X text 130 511 5sec;
#X text 130 528 8sec;
#X connect 0 0 26 0;
#X connect 0 0 28 0;
#X connect 3 0 2 0;
#X connect 4 0 26 1;
#X connect 6 0 41 0;
#X connect 11 0 1 1;
#X connect 12 0 1 0;
#X connect 13 0 40 0;
#X connect 14 0 41 0;
#X connect 16 0 17 0;
#X connect 17 0 4 0;
#X connect 18 0 9 0;
#X connect 18 0 14 0;
#X connect 18 0 40 0;
#X connect 20 0 18 0;
#X connect 21 0 25 0;
#X connect 23 0 13 1;
#X connect 24 0 14 1;
#X connect 25 0 6 0;
#X connect 25 0 8 0;
#X connect 25 0 13 0;
#X connect 26 0 10 0;
#X connect 26 0 41 0;
#X connect 31 0 32 0;
#X connect 32 0 33 0;
#X connect 42 0 41 0;
#X coords 0 997 1 996 85 60 0;
